<?xml version="1.0" encoding="utf-8" standalone="yes"?>
<!DOCTYPE svg PUBLIC "-//W3C//DTD SVG 1.1//EN" "http://www.w3.org/Graphics/SVG/1.1/DTD/svg11.dtd">
<svg width="720" height="612" viewBox="0 0 720 612" style="fill:none;stroke:none;fill-rule:evenodd;clip-rule:evenodd;stroke-linecap:round;stroke-linejoin:round;stroke-miterlimit:1.5;" version="1.1" xmlns="http://www.w3.org/2000/svg" xmlns:xlink="http://www.w3.org/1999/xlink"><style id="fontImports">@import url("https://fonts.googleapis.com/css2?family=Roboto:wght@400;700&amp;display=block");</style><g id="items" style="isolation: isolate"><g id="blend" style="mix-blend-mode:multiply"><g id="g-root-4.Vector_sy_dg2t11csxde0-fill" data-item-order="-207932" data-item-id="4.Vector_sy_dg2t11csxde0" data-item-class="ScenePart Indexed Fill Stroke ColorStrokeBlack" data-item-index="4" data-renderer-id="0" transform="translate(363, 339)"><g id="4.Vector_sy_dg2t11csxde0-fill" stroke="none" fill="#de9ffb"><g><path d="M 21 10L 189 10C 195.075 10 200 14.925 200 21L 200 189C 200 195.075 195.075 200 189 200L 21 200C 14.925 200 10 195.075 10 189L 10 21C 10 14.925 14.925 10 21 10Z"></path></g></g></g><g id="g-root-3.Vector_sy_dg2t11csxddz-fill" data-item-order="-207930" data-item-id="3.Vector_sy_dg2t11csxddz" data-item-class="ScenePart Indexed Fill Stroke ColorStrokeBlack" data-item-index="3" data-renderer-id="0" transform="translate(147, 339)"><g id="3.Vector_sy_dg2t11csxddz-fill" stroke="none" fill="#bc83d7"><g><path d="M 21 10L 189 10C 195.075 10 200 14.925 200 21L 200 189C 200 195.075 195.075 200 189 200L 21 200C 14.925 200 10 195.075 10 189L 10 21C 10 14.925 14.925 10 21 10Z"></path></g></g></g><g id="g-root-2.Vector_sy_hvwb5hcsxclq-fill" data-item-order="-207928" data-item-id="2.Vector_sy_hvwb5hcsxclq" data-item-class="ScenePart Indexed Fill Stroke ColorStrokeBlack" data-item-index="2" data-renderer-id="0" transform="translate(363, 123)"><g id="2.Vector_sy_hvwb5hcsxclq-fill" stroke="none" fill="#9a66b2"><g><path d="M 21 10L 189 10C 195.075 10 200 14.925 200 21L 200 189C 200 195.075 195.075 200 189 200L 21 200C 14.925 200 10 195.075 10 189L 10 21C 10 14.925 14.925 10 21 10Z"></path></g></g></g><g id="g-root-1.Vector_sy_hvwb5hcsxclp-fill" data-item-order="-207926" data-item-id="1.Vector_sy_hvwb5hcsxclp" data-item-class="ScenePart Indexed Indexed_1 Fill Stroke ColorStrokeBlack" data-item-index="1" data-renderer-id="0" transform="translate(147, 123)"><g id="1.Vector_sy_hvwb5hcsxclp-fill" stroke="none" fill="#784a8e"><g><path d="M 21 10L 189 10C 195.075 10 200 14.925 200 21L 200 189C 200 195.075 195.075 200 189 200L 21 200C 14.925 200 10 195.075 10 189L 10 21C 10 14.925 14.925 10 21 10Z"></path></g></g></g><g id="g-root-0.line_sy_mbpt9xcsxbtb-fill" data-item-order="-207923" data-item-id="0.line_sy_mbpt9xcsxbtb" data-item-class="ScenePart Indexed_0 Stroke ColorStrokeBlack" data-item-index="0" data-renderer-id="0" transform="translate(122, 326)"></g><g id="g-root-0.head_sy_qrjbedcsxbsw-fill" data-item-order="-207921" data-item-id="0.head_sy_qrjbedcsxbsw" data-item-class="ScenePart Indexed_0 Stroke ColorStrokeBlack" data-item-index="0" data-renderer-id="0" transform="translate(122, 319.5)"></g><g id="g-root-0.head_1_sy_qrjbedcsxbsx-fill" data-item-order="-207919" data-item-id="0.head_1_sy_qrjbedcsxbsx" data-item-class="ScenePart Indexed_0 Stroke ColorStrokeBlack" data-item-index="0" data-renderer-id="0" transform="translate(571.5, 319.5)"></g><g id="g-root-0.line_1_sy_qrjbedcsxbsy-fill" data-item-order="-207917" data-item-id="0.line_1_sy_qrjbedcsxbsy" data-item-class="ScenePart Indexed_0 Stroke ColorStrokeBlack" data-item-index="0" data-renderer-id="0" transform="translate(350, 98)"></g><g id="g-root-0.head_2_sy_qrjbedcsxbsz-fill" data-item-order="-207915" data-item-id="0.head_2_sy_qrjbedcsxbsz" data-item-class="ScenePart Indexed_0 Stroke ColorStrokeBlack" data-item-index="0" data-renderer-id="0" transform="translate(343.5, 547.5)"></g><g id="g-root-0.head_3_sy_qrjbedcsxbt0-fill" data-item-order="-207913" data-item-id="0.head_3_sy_qrjbedcsxbt0" data-item-class="ScenePart Indexed_0 Stroke ColorStrokeBlack" data-item-index="0" data-renderer-id="0" transform="translate(343.5, 98)"></g><g id="g-root-tx_cleanres_58rqtcsxbt7-fill" data-item-order="0" data-item-id="tx_cleanres_58rqtcsxbt7" data-item-class="Label Stroke SceneTarget Indexed InsideFill InsideColorFill ColorStrokeBlack" data-item-index="2" data-renderer-id="0" transform="translate(392, 218)"><g id="tx_cleanres_58rqtcsxbt7-fill" stroke="none" fill="#ffffff"><g><text style="font: 20px Roboto, sans-serif; white-space: pre;"><tspan x="15.36" y="33.5" dominant-baseline="ideographic">Clean Results</tspan></text></g></g></g><g id="g-root-tx_lowversa_1hfpab9csxati-fill" data-item-order="0" data-item-id="tx_lowversa_1hfpab9csxati" data-item-class="Label Stroke SceneTarget ColorFillGray ColorStrokeGray" data-item-index="none" data-renderer-id="0" transform="translate(2, 314)"><g id="tx_lowversa_1hfpab9csxati-fill" stroke="none" fill="#A3A3A3"><g><text style="font: 15px Roboto, sans-serif; white-space: pre;"><tspan x="18.43" y="30.5" dominant-baseline="ideographic">Low Versatility</tspan></text></g></g></g><g id="g-root-tx_highaccu_1uqjblhcsxcec-fill" data-item-order="0" data-item-id="tx_highaccu_1uqjblhcsxcec" data-item-class="Label Stroke SceneTarget Indexed Indexed_1 InsideFill InsideColorFill ColorStrokeBlack" data-item-index="1" data-renderer-id="0" transform="translate(176, 218)"><g id="tx_highaccu_1uqjblhcsxcec-fill" stroke="none" fill="#ffffff"><g><text style="font: 20px Roboto, sans-serif; white-space: pre;"><tspan x="11.75" y="33.5" dominant-baseline="ideographic">High Accuracy</tspan></text></g></g></g><g id="g-root-1_1hgy8hhct05c0-fill" data-item-order="0" data-item-id="1_1hgy8hhct05c0" data-item-class="Icon Stroke SceneTarget Indexed InsideFill InsideColorFill ColorStrokeBlack" data-item-index="2" data-renderer-id="0" transform="translate(434, 146)"></g><g id="g-root-1_18lb88lct064p-fill" data-item-order="0" data-item-id="1_18lb88lct064p" data-item-class="Icon Stroke SceneTarget Indexed Indexed_1 InsideFill InsideColorFill ColorStrokeBlack" data-item-index="1" data-renderer-id="0" transform="translate(218, 146)"></g><g id="g-root-tx_highvers_zof9thcsxd6o-fill" data-item-order="0" data-item-id="tx_highvers_zof9thcsxd6o" data-item-class="Label Stroke SceneTarget ColorFillGray ColorStrokeGray" data-item-index="none" data-renderer-id="0" transform="translate(590, 314)"><g id="tx_highvers_zof9thcsxd6o-fill" stroke="none" fill="#A3A3A3"><g><text style="font: 15px Roboto, sans-serif; white-space: pre;"><tspan x="12" y="30.5" dominant-baseline="ideographic">High Versatility</tspan></text></g></g></g><g id="g-root-tx_lowimpac_1448rxxcsxcef-fill" data-item-order="0" data-item-id="tx_lowimpac_1448rxxcsxcef" data-item-class="Label Stroke SceneTarget ColorFillGray ColorStrokeGray" data-item-index="none" data-renderer-id="0" transform="translate(308.08349609375, 566)"><g id="tx_lowimpac_1448rxxcsxcef-fill" stroke="none" fill="#A3A3A3"><g><text style="font: 15px Roboto, sans-serif; white-space: pre;"><tspan x="12.92" y="30.5" dominant-baseline="ideographic">Low Impact</tspan></text></g></g></g><g id="g-root-svg_1lwrqlxct04jr-fill" data-item-order="0" data-item-id="svg_1lwrqlxct04jr" data-item-class="Icon Stroke SceneTarget Indexed InsideFill InsideColorFill ColorStrokeBlack" data-item-index="3" data-renderer-id="0" transform="translate(218, 362)"></g><g id="g-root-desi_m9ue0lct05xo-fill" data-item-order="0" data-item-id="desi_m9ue0lct05xo" data-item-class="Icon Stroke SceneTarget Indexed InsideFill InsideColorFill ColorStrokeBlack" data-item-index="4" data-renderer-id="0" transform="translate(434, 362)"></g><g id="g-root-tx_versatil_58rqtcsxbt6-fill" data-item-order="0" data-item-id="tx_versatil_58rqtcsxbt6" data-item-class="Label Stroke SceneTarget Indexed InsideFill InsideColorFill ColorStrokeBlack" data-item-index="3" data-renderer-id="0" transform="translate(188, 434)"><g id="tx_versatil_58rqtcsxbt6-fill" stroke="none" fill="#ffffff"><g><text style="font: 20px Roboto, sans-serif; white-space: pre;"><tspan x="25.16" y="33.5" dominant-baseline="ideographic">Versatile </tspan><tspan x="13.81" y="57.5" dominant-baseline="ideographic">Application</tspan></text></g></g></g><g id="g-root-tx_multipla_90vrzpcsxb0h-fill" data-item-order="0" data-item-id="tx_multipla_90vrzpcsxb0h" data-item-class="Label Stroke SceneTarget Indexed InsideFill InsideColorFill ColorStrokeBlack" data-item-index="4" data-renderer-id="0" transform="translate(386, 434)"><g id="tx_multipla_90vrzpcsxb0h-fill" stroke="none" fill="#ffffff"><g><text style="font: 20px Roboto, sans-serif; white-space: pre;"><tspan x="15.64" y="33.5" dominant-baseline="ideographic">Multi-Platform </tspan><tspan x="44.26" y="57.5" dominant-baseline="ideographic">Support</tspan></text></g></g></g><g id="g-root-tx_highimpa_qteqnpcsxatl-fill" data-item-order="0" data-item-id="tx_highimpa_qteqnpcsxatl" data-item-class="Label Stroke SceneTarget ColorFillGray ColorStrokeGray" data-item-index="none" data-renderer-id="0" transform="translate(302, 62)"><g id="tx_highimpa_qteqnpcsxatl-fill" stroke="none" fill="#A3A3A3"><g><text style="font: 15px Roboto, sans-serif; white-space: pre;"><tspan x="17.36" y="30.5" dominant-baseline="ideographic">High Impact</tspan></text></g></g></g><g id="g-root-tx_benefits_1luwbclcsxd71-fill" data-item-order="0" data-item-id="tx_benefits_1luwbclcsxd71" data-item-class="Label Stroke SceneTarget SceneTitle ColorStrokeBlack" data-item-index="none" data-renderer-id="0" transform="translate(164, 2)"><g id="tx_benefits_1luwbclcsxd71-fill" stroke="none" fill="#666666"><g><text style="font: 20px Roboto, sans-serif; white-space: pre;"><tspan x="12.76" y="33.5" dominant-baseline="ideographic">Benefits of Remove Text from Image Tool</tspan></text></g></g></g><g id="g-root-4.Vector_sy_dg2t11csxde0-stroke" data-item-order="-207932" data-item-id="4.Vector_sy_dg2t11csxde0" data-item-class="ScenePart Indexed Fill Stroke ColorStrokeBlack" data-item-index="4" data-renderer-id="0" transform="translate(363, 339)"><g id="4.Vector_sy_dg2t11csxde0-stroke" fill="none" stroke-linecap="round" stroke-linejoin="round" stroke-miterlimit="4" stroke="#ffffff" stroke-width="2"><g><path d="M 21 10L 189 10C 195.075 10 200 14.925 200 21L 200 189C 200 195.075 195.075 200 189 200L 21 200C 14.925 200 10 195.075 10 189L 10 21C 10 14.925 14.925 10 21 10Z"></path></g></g></g><g id="g-root-3.Vector_sy_dg2t11csxddz-stroke" data-item-order="-207930" data-item-id="3.Vector_sy_dg2t11csxddz" data-item-class="ScenePart Indexed Fill Stroke ColorStrokeBlack" data-item-index="3" data-renderer-id="0" transform="translate(147, 339)"><g id="3.Vector_sy_dg2t11csxddz-stroke" fill="none" stroke-linecap="round" stroke-linejoin="round" stroke-miterlimit="4" stroke="#ffffff" stroke-width="2"><g><path d="M 21 10L 189 10C 195.075 10 200 14.925 200 21L 200 189C 200 195.075 195.075 200 189 200L 21 200C 14.925 200 10 195.075 10 189L 10 21C 10 14.925 14.925 10 21 10Z"></path></g></g></g><g id="g-root-2.Vector_sy_hvwb5hcsxclq-stroke" data-item-order="-207928" data-item-id="2.Vector_sy_hvwb5hcsxclq" data-item-class="ScenePart Indexed Fill Stroke ColorStrokeBlack" data-item-index="2" data-renderer-id="0" transform="translate(363, 123)"><g id="2.Vector_sy_hvwb5hcsxclq-stroke" fill="none" stroke-linecap="round" stroke-linejoin="round" stroke-miterlimit="4" stroke="#ffffff" stroke-width="2"><g><path d="M 21 10L 189 10C 195.075 10 200 14.925 200 21L 200 189C 200 195.075 195.075 200 189 200L 21 200C 14.925 200 10 195.075 10 189L 10 21C 10 14.925 14.925 10 21 10Z"></path></g></g></g><g id="g-root-1.Vector_sy_hvwb5hcsxclp-stroke" data-item-order="-207926" data-item-id="1.Vector_sy_hvwb5hcsxclp" data-item-class="ScenePart Indexed Indexed_1 Fill Stroke ColorStrokeBlack" data-item-index="1" data-renderer-id="0" transform="translate(147, 123)"><g id="1.Vector_sy_hvwb5hcsxclp-stroke" fill="none" stroke-linecap="round" stroke-linejoin="round" stroke-miterlimit="4" stroke="#ffffff" stroke-width="2"><g><path d="M 21 10L 189 10C 195.075 10 200 14.925 200 21L 200 189C 200 195.075 195.075 200 189 200L 21 200C 14.925 200 10 195.075 10 189L 10 21C 10 14.925 14.925 10 21 10Z"></path></g></g></g><g id="g-root-0.line_sy_mbpt9xcsxbtb-stroke" data-item-order="-207923" data-item-id="0.line_sy_mbpt9xcsxbtb" data-item-class="ScenePart Indexed_0 Stroke ColorStrokeBlack" data-item-index="0" data-renderer-id="0" transform="translate(122, 326)"><g id="0.line_sy_mbpt9xcsxbtb-stroke" fill="none" stroke-linecap="round" stroke-linejoin="round" stroke-miterlimit="4" stroke="#666666" stroke-width="2"><g><path d="M 10 10L 238 10L 466 10"></path></g></g></g><g id="g-root-0.head_sy_qrjbedcsxbsw-stroke" data-item-order="-207921" data-item-id="0.head_sy_qrjbedcsxbsw" data-item-class="ScenePart Indexed_0 Stroke ColorStrokeBlack" data-item-index="0" data-renderer-id="0" transform="translate(122, 319.5)"><g id="0.head_sy_qrjbedcsxbsw-stroke" fill="none" stroke-linecap="round" stroke-linejoin="round" stroke-miterlimit="4" stroke="#666666" stroke-width="2"><g><path d="M 16.5 10C 14.333 12.167 10 16.5 10 16.5L 16.5 23"></path></g></g></g><g id="g-root-0.head_1_sy_qrjbedcsxbsx-stroke" data-item-order="-207919" data-item-id="0.head_1_sy_qrjbedcsxbsx" data-item-class="ScenePart Indexed_0 Stroke ColorStrokeBlack" data-item-index="0" data-renderer-id="0" transform="translate(571.5, 319.5)"><g id="0.head_1_sy_qrjbedcsxbsx-stroke" fill="none" stroke-linecap="round" stroke-linejoin="round" stroke-miterlimit="4" stroke="#666666" stroke-width="2"><g><path d="M 10 10C 12.166 12.167 16.5 16.5 16.5 16.5L 10 23"></path></g></g></g><g id="g-root-0.line_1_sy_qrjbedcsxbsy-stroke" data-item-order="-207917" data-item-id="0.line_1_sy_qrjbedcsxbsy" data-item-class="ScenePart Indexed_0 Stroke ColorStrokeBlack" data-item-index="0" data-renderer-id="0" transform="translate(350, 98)"><g id="0.line_1_sy_qrjbedcsxbsy-stroke" fill="none" stroke-linecap="round" stroke-linejoin="round" stroke-miterlimit="4" stroke="#666666" stroke-width="2"><g><path d="M 10 466L 10 242L 10 10"></path></g></g></g><g id="g-root-0.head_2_sy_qrjbedcsxbsz-stroke" data-item-order="-207915" data-item-id="0.head_2_sy_qrjbedcsxbsz" data-item-class="ScenePart Indexed_0 Stroke ColorStrokeBlack" data-item-index="0" data-renderer-id="0" transform="translate(343.5, 547.5)"><g id="0.head_2_sy_qrjbedcsxbsz-stroke" fill="none" stroke-linecap="round" stroke-linejoin="round" stroke-miterlimit="4" stroke="#666666" stroke-width="2"><g><path d="M 10 10C 12.167 12.167 16.5 16.5 16.5 16.5L 23 10"></path></g></g></g><g id="g-root-0.head_3_sy_qrjbedcsxbt0-stroke" data-item-order="-207913" data-item-id="0.head_3_sy_qrjbedcsxbt0" data-item-class="ScenePart Indexed_0 Stroke ColorStrokeBlack" data-item-index="0" data-renderer-id="0" transform="translate(343.5, 98)"><g id="0.head_3_sy_qrjbedcsxbt0-stroke" fill="none" stroke-linecap="round" stroke-linejoin="round" stroke-miterlimit="4" stroke="#666666" stroke-width="2"><g><path d="M 10 16.5C 12.167 14.333 16.5 10 16.5 10L 23 16.5"></path></g></g></g><g id="g-root-tx_cleanres_58rqtcsxbt7-stroke" data-item-order="0" data-item-id="tx_cleanres_58rqtcsxbt7" data-item-class="Label Stroke SceneTarget Indexed InsideFill InsideColorFill ColorStrokeBlack" data-item-index="2" data-renderer-id="0" transform="translate(392, 218)"></g><g id="g-root-tx_lowversa_1hfpab9csxati-stroke" data-item-order="0" data-item-id="tx_lowversa_1hfpab9csxati" data-item-class="Label Stroke SceneTarget ColorFillGray ColorStrokeGray" data-item-index="none" data-renderer-id="0" transform="translate(2, 314)"></g><g id="g-root-tx_highaccu_1uqjblhcsxcec-stroke" data-item-order="0" data-item-id="tx_highaccu_1uqjblhcsxcec" data-item-class="Label Stroke SceneTarget Indexed Indexed_1 InsideFill InsideColorFill ColorStrokeBlack" data-item-index="1" data-renderer-id="0" transform="translate(176, 218)"></g><g id="g-root-1_1hgy8hhct05c0-stroke" data-item-order="0" data-item-id="1_1hgy8hhct05c0" data-item-class="Icon Stroke SceneTarget Indexed InsideFill InsideColorFill ColorStrokeBlack" data-item-index="2" data-renderer-id="0" transform="translate(434, 146)"><g id="1_1hgy8hhct05c0-stroke" fill="none" stroke-linecap="round" stroke-linejoin="round" stroke-miterlimit="4" stroke="#ffffff" stroke-width="2"><g><path d="M 17 56.540001L 13 51.5C 11.713837 49.908497 11.008401 47.926224 11 45.880001L 11 35.540001C 11 33.883148 12.343145 32.540001 14 32.540001L 14 32.540001C 15.656855 32.540001 17 33.883148 17 35.540001L 17 43.279999M 26 56.259998L 26 50.259998C 26.003866 48.478962 25.474476 46.737541 24.48 45.259998L 22.200001 41.84C 21.804802 41.171528 21.149738 40.697205 20.391323 40.53035C 19.632906 40.363503 18.839258 40.519112 18.200001 40.959999L 18.200001 40.959999C 17.030144 41.746559 16.62746 43.280186 17.26 44.540001L 20 49.040001M 51 56.540001L 55 51.5C 56.286163 49.908497 56.9916 47.926224 57 45.880001L 57 35.540001C 57 33.883148 55.656857 32.540001 54 32.540001L 54 32.540001C 52.343147 32.540001 51 33.883148 51 35.540001L 51 43.279999M 42 56.259998L 42 50.259998C 41.996132 48.478962 42.525524 46.737541 43.52 45.259998L 45.799999 41.84C 46.195198 41.171528 46.850262 40.697205 47.608677 40.53035C 48.367096 40.363503 49.160744 40.519112 49.799999 40.959999L 49.799999 40.959999C 50.969856 41.746559 51.37254 43.280186 50.740002 44.540001L 48 49.040001M 42 27.74C 41.977451 29.79987 41.106392 31.759258 39.59227 33.156036C 38.078144 34.552818 36.055 35.263329 34 35.119999C 31.946451 35.257408 29.92667 34.544868 28.413906 33.149345C 26.901142 31.75382 26.028339 29.797947 26 27.740002C 26 24.24 31.08 15.4 33.139999 12C 33.327324 11.706264 33.651615 11.528452 34 11.528452C 34.348385 11.528452 34.672676 11.706264 34.860001 12C 36.919998 15.4 42 24.24 42 27.74Z"></path></g></g></g><g id="g-root-1_18lb88lct064p-stroke" data-item-order="0" data-item-id="1_18lb88lct064p" data-item-class="Icon Stroke SceneTarget Indexed Indexed_1 InsideFill InsideColorFill ColorStrokeBlack" data-item-index="1" data-renderer-id="0" transform="translate(218, 146)"><g id="1_18lb88lct064p-stroke" fill="none" stroke-linecap="round" stroke-linejoin="round" stroke-miterlimit="4" stroke="#ffffff" stroke-width="2"><g><path d="M 25 53C 22.467594 52.863163 20.057898 51.865414 18.17 50.172001L 13.828 45.826C 12.271737 44.261044 12.271737 41.732956 13.828 40.167999L 38.169998 15.826C 39.734955 14.269737 42.263046 14.269737 43.827999 15.826L 54.169998 26.167999C 55.726265 27.732956 55.726265 30.261044 54.170002 31.826L 35.827999 50.167999C 33.941185 51.862446 31.532206 52.861603 29 53ZM 29 24.996L 45 40.996002M 11 56.995998L 57 56.995998"></path></g></g></g><g id="g-root-tx_highvers_zof9thcsxd6o-stroke" data-item-order="0" data-item-id="tx_highvers_zof9thcsxd6o" data-item-class="Label Stroke SceneTarget ColorFillGray ColorStrokeGray" data-item-index="none" data-renderer-id="0" transform="translate(590, 314)"></g><g id="g-root-tx_lowimpac_1448rxxcsxcef-stroke" data-item-order="0" data-item-id="tx_lowimpac_1448rxxcsxcef" data-item-class="Label Stroke SceneTarget ColorFillGray ColorStrokeGray" data-item-index="none" data-renderer-id="0" transform="translate(308.08349609375, 566)"></g><g id="g-root-svg_1lwrqlxct04jr-stroke" data-item-order="0" data-item-id="svg_1lwrqlxct04jr" data-item-class="Icon Stroke SceneTarget Indexed InsideFill InsideColorFill ColorStrokeBlack" data-item-index="3" data-renderer-id="0" transform="translate(218, 362)"><g id="svg_1lwrqlxct04jr-stroke" fill="none" stroke-linecap="round" stroke-linejoin="round" stroke-miterlimit="4" stroke="#ffffff" stroke-width="2"><g><path d="M 51 57C 52.104568 57 53 56.104568 53 55L 53 22.950001C 53 16.350197 47.649803 11 41.049999 11L 17 11C 15.895431 11 15 11.895431 15 13L 15 55C 15 56.104568 15.895431 57 17 57ZM 43 11.16L 43 19C 43 20.104568 43.895432 21 45 21L 52.84 21M 27 35L 23.6 35C 22.446991 34.991116 21.425859 35.742687 21.09161 36.846222C 20.757359 37.949757 21.189842 39.141613 22.153999 39.774002L 25.834 42.226002C 26.796236 42.857189 27.229078 44.045841 26.898022 45.147976C 26.566965 46.250114 25.550777 47.00351 24.4 47L 21 47M 37 35L 37 38C 37 41.245552 35.947334 44.403561 34 47.000004C 32.05267 44.403561 31.000002 41.245552 31.000002 38L 31 35M 47 39L 47 38C 47 36.343147 45.656857 35 44 35C 42.343147 35 41 36.343147 41 38L 41 44C 41 45.656857 42.343147 47 44 47C 45.656857 47 47 45.656857 47 44L 47 43L 45 43"></path></g></g></g><g id="g-root-desi_m9ue0lct05xo-stroke" data-item-order="0" data-item-id="desi_m9ue0lct05xo" data-item-class="Icon Stroke SceneTarget Indexed InsideFill InsideColorFill ColorStrokeBlack" data-item-index="4" data-renderer-id="0" transform="translate(434, 362)"><g id="desi_m9ue0lct05xo-stroke" fill="none" stroke-linecap="round" stroke-linejoin="round" stroke-miterlimit="4" stroke="#ffffff" stroke-width="2"><g><path d="M 27 49L 41 49M 34 45L 34 49M 17 39L 41 39M 13 11L 21 11C 21 11 23 11 23 13L 23 27C 23 27 23 29 21 29L 13 29C 13 29 11 29 11 27L 11 13C 11 13 11 11 13 11M 47 39L 55 39C 55 39 57 39 57 41L 57 55C 57 55 57 57 55 57L 47 57C 47 57 45 57 45 55L 45 41C 45 41 45 39 47 39M 45 53L 57 53M 27 21L 48 21C 49.656857 21 51 22.343147 51 24L 51 35M 41 45L 20 45C 18.343147 45 17 43.656857 17 42L 17 33"></path></g></g></g><g id="g-root-tx_versatil_58rqtcsxbt6-stroke" data-item-order="0" data-item-id="tx_versatil_58rqtcsxbt6" data-item-class="Label Stroke SceneTarget Indexed InsideFill InsideColorFill ColorStrokeBlack" data-item-index="3" data-renderer-id="0" transform="translate(188, 434)"></g><g id="g-root-tx_multipla_90vrzpcsxb0h-stroke" data-item-order="0" data-item-id="tx_multipla_90vrzpcsxb0h" data-item-class="Label Stroke SceneTarget Indexed InsideFill InsideColorFill ColorStrokeBlack" data-item-index="4" data-renderer-id="0" transform="translate(386, 434)"></g><g id="g-root-tx_highimpa_qteqnpcsxatl-stroke" data-item-order="0" data-item-id="tx_highimpa_qteqnpcsxatl" data-item-class="Label Stroke SceneTarget ColorFillGray ColorStrokeGray" data-item-index="none" data-renderer-id="0" transform="translate(302, 62)"></g><g id="g-root-tx_benefits_1luwbclcsxd71-stroke" data-item-order="0" data-item-id="tx_benefits_1luwbclcsxd71" data-item-class="Label Stroke SceneTarget SceneTitle ColorStrokeBlack" data-item-index="none" data-renderer-id="0" transform="translate(164, 2)"></g></g></g></svg>