<?xml version="1.0" encoding="utf-8" standalone="yes"?>
<!DOCTYPE svg PUBLIC "-//W3C//DTD SVG 1.1//EN" "http://www.w3.org/Graphics/SVG/1.1/DTD/svg11.dtd">
<svg width="458" height="436" viewBox="0 0 458 436" style="fill:none;stroke:none;fill-rule:evenodd;clip-rule:evenodd;stroke-linecap:round;stroke-linejoin:round;stroke-miterlimit:1.5;" version="1.1" xmlns="http://www.w3.org/2000/svg" xmlns:xlink="http://www.w3.org/1999/xlink"><style id="fontImports">@import url("https://fonts.googleapis.com/css2?family=Roboto:wght@400;700&amp;display=block");</style><g id="items" style="isolation: isolate"><g id="blend" style="mix-blend-mode:multiply"><g id="g-root--1.cu_sy_4ijxp1avbeo2-fill" data-item-order="-82939" data-item-id="-1.cu_sy_4ijxp1avbeo2" data-item-class="ScenePart Stroke ColorStrokeBlack" data-item-index="-1" data-renderer-id="0" transform="translate(3, 245.9959716796875)"></g><g id="g-root-4.cr-big_cr_1q87hatavbg23-fill" data-item-order="-82938" data-item-id="4.cr-big_cr_1q87hatavbg23" data-item-class="Shape Stroke Fill ScenePart Indexed ColorStrokeBlack" data-item-index="4" data-renderer-id="0" transform="translate(327, 281.99798583984375)"><g id="4.cr-big_cr_1q87hatavbg23-fill" stroke="none" fill="#93c131"><g><path d="M 10 46C 10 65.882251 26.117749 82 46 82C 65.882251 82 82 65.882251 82 46C 82 26.117749 65.882251 10 46 10C 26.117749 10 10 26.117749 10 46"></path></g></g></g><g id="g-root-4.cu-smallCircle_sy_1lt0g9havbdok-fill" data-item-order="-82935" data-item-id="4.cu-smallCircle_sy_1lt0g9havbdok" data-item-class="ScenePart Indexed Stroke ColorStrokeBlack" data-item-index="4" data-renderer-id="0" transform="translate(360, 255.00201416015625)"></g><g id="g-root-4.ln_ln_1lt0g9havbdol-fill" data-item-order="-82933" data-item-id="4.ln_ln_1lt0g9havbdol" data-item-class="Curve Stroke ScenePart Indexed ColorStrokeBlack" data-item-index="4" data-renderer-id="0" transform="translate(363, 261.00201416015625)"></g><g id="g-root-3.cr-big_cr_1q87hatavbg21-fill" data-item-order="-82932" data-item-id="3.cr-big_cr_1q87hatavbg21" data-item-class="Shape Stroke Fill ScenePart Indexed ColorStrokeBlack" data-item-index="3" data-renderer-id="0" transform="translate(231, 162)"><g id="3.cr-big_cr_1q87hatavbg21-fill" stroke="none" fill="#3bc482"><g><path d="M 10 46C 10 65.882251 26.117749 82 46 82C 65.882251 82 82 65.882251 82 46C 82 26.117749 65.882251 10 46 10C 26.117749 10 10 26.117749 10 46"></path></g></g></g><g id="g-root-3.cu_sy_1q87hatavbg22-fill" data-item-order="-82929" data-item-id="3.cu_sy_1q87hatavbg22" data-item-class="ScenePart Indexed Stroke ColorStrokeBlack" data-item-index="3" data-renderer-id="0" transform="translate(264, 234)"></g><g id="g-root-2.cr-big_cr_1uo0zf9avbf9q-fill" data-item-order="-82928" data-item-id="2.cr-big_cr_1uo0zf9avbf9q" data-item-class="Shape Stroke Fill ScenePart Indexed ColorStrokeBlack" data-item-index="2" data-renderer-id="0" transform="translate(135, 282)"><g id="2.cr-big_cr_1uo0zf9avbf9q-fill" stroke="none" fill="#17b0e3"><g><path d="M 10 46C 10 65.882251 26.117749 82 46 82C 65.882251 82 82 65.882251 82 46C 82 26.117749 65.882251 10 46 10C 26.117749 10 10 26.117749 10 46"></path></g></g></g><g id="g-root-2.cu-smallCircle_sy_1uo0zf9avbf9r-fill" data-item-order="-82925" data-item-id="2.cu-smallCircle_sy_1uo0zf9avbf9r" data-item-class="ScenePart Indexed Stroke ColorStrokeBlack" data-item-index="2" data-renderer-id="0" transform="translate(168, 255.00201416015625)"></g><g id="g-root-2.ln_ln_1q87hatavbg20-fill" data-item-order="-82923" data-item-id="2.ln_ln_1q87hatavbg20" data-item-class="Curve Stroke ScenePart Indexed ColorStrokeBlack" data-item-index="2" data-renderer-id="0" transform="translate(171, 261.00201416015625)"></g><g id="g-root-1.cr-big_cr_4ijxp1avbeo3-fill" data-item-order="-82922" data-item-id="1.cr-big_cr_4ijxp1avbeo3" data-item-class="Shape Stroke Fill ScenePart Indexed Indexed_1 ColorStrokeBlack" data-item-index="1" data-renderer-id="0" transform="translate(39, 162)"><g id="1.cr-big_cr_4ijxp1avbeo3-fill" stroke="none" fill="#4682e3"><g><path d="M 10 46C 10 65.882251 26.117749 82 46 82C 65.882251 82 82 65.882251 82 46C 82 26.117749 65.882251 10 46 10C 26.117749 10 10 26.117749 10 46"></path></g></g></g><g id="g-root-1.cu-smallCircle_sy_1uo0zf9avbf9o-fill" data-item-order="-82919" data-item-id="1.cu-smallCircle_sy_1uo0zf9avbf9o" data-item-class="ScenePart Indexed Indexed_1 Stroke ColorStrokeBlack" data-item-index="1" data-renderer-id="0" transform="translate(72, 254.9959716796875)"></g><g id="g-root-1.ln_ln_1uo0zf9avbf9p-fill" data-item-order="-82917" data-item-id="1.ln_ln_1uo0zf9avbf9p" data-item-class="Curve Stroke ScenePart Indexed Indexed_1 ColorStrokeBlack" data-item-index="1" data-renderer-id="0" transform="translate(75, 234)"></g><g id="g-root-tx_removete_qqwehhavbegy-fill" data-item-order="0" data-item-id="tx_removete_qqwehhavbegy" data-item-class="Label Stroke" data-item-index="none" data-renderer-id="0" transform="translate(75, 2)"><g id="tx_removete_qqwehhavbegy-fill" stroke="none" fill="#484848"><g><text style="font: bold 20px Roboto, sans-serif; white-space: pre;"><tspan x="16.92" y="51.5" dominant-baseline="ideographic">How to Use Remove Text from </tspan><tspan x="124.53" y="75.5" dominant-baseline="ideographic">Image</tspan></text></g></g></g><g id="g-root-tx_uploadim_141qfrpavbg1t-fill" data-item-order="0" data-item-id="tx_uploadim_141qfrpavbg1t" data-item-class="Label Stroke SceneTarget Indexed Indexed_1 ColorStrokeBlack" data-item-index="1" data-renderer-id="0" transform="translate(9, 126)"><g id="tx_uploadim_141qfrpavbg1t-fill" stroke="none" fill="#666666"><g><text style="font: 20px Roboto, sans-serif; white-space: pre;"><tspan x="14.39" y="33.5" dominant-baseline="ideographic">Upload Image</tspan></text></g></g></g><g id="g-root-tx_removete_18hjxw5avbf9j-fill" data-item-order="0" data-item-id="tx_removete_18hjxw5avbf9j" data-item-class="Label Stroke SceneTarget Indexed ColorStrokeBlack" data-item-index="3" data-renderer-id="0" transform="translate(207, 126)"><g id="tx_removete_18hjxw5avbf9j-fill" stroke="none" fill="#666666"><g><text style="font: 20px Roboto, sans-serif; white-space: pre;"><tspan x="12.79" y="33.5" dominant-baseline="ideographic">Remove Text</tspan></text></g></g></g><g id="g-root-uplo_1cxdg0lavcsn7-fill" data-item-order="0" data-item-id="uplo_1cxdg0lavcsn7" data-item-class="Icon Stroke SceneTarget Indexed Indexed_1 InsideFill InsideColorFill ColorStrokeBlack" data-item-index="1" data-renderer-id="0" transform="translate(51, 174)"></g><g id="g-root-eras_v9ua1havcs93-fill" data-item-order="0" data-item-id="eras_v9ua1havcs93" data-item-class="Icon Stroke SceneTarget Indexed InsideFill InsideColorFill ColorStrokeBlack" data-item-index="3" data-renderer-id="0" transform="translate(243, 174)"></g><g id="g-root-top_1hckh1xavcv0q-fill" data-item-order="0" data-item-id="top_1hckh1xavcv0q" data-item-class="Icon Stroke SceneTarget Indexed InsideFill InsideColorFill ColorStrokeBlack" data-item-index="2" data-renderer-id="0" transform="translate(147, 294)"></g><g id="g-root-2_1q87hatavcu81-fill" data-item-order="0" data-item-id="2_1q87hatavcu81" data-item-class="Icon Stroke SceneTarget Indexed InsideFill InsideColorFill ColorStrokeBlack" data-item-index="4" data-renderer-id="0" transform="translate(339, 294)"></g><g id="g-root-tx_highligh_141qfrpavbg1s-fill" data-item-order="0" data-item-id="tx_highligh_141qfrpavbg1s" data-item-class="Label Stroke SceneTarget Indexed ColorStrokeBlack" data-item-index="2" data-renderer-id="0" transform="translate(105, 366)"><g id="tx_highligh_141qfrpavbg1s-fill" stroke="none" fill="#666666"><g><text style="font: 20px Roboto, sans-serif; white-space: pre;"><tspan x="14.8" y="33.5" dominant-baseline="ideographic">Highlight Text</tspan></text></g></g></g><g id="g-root-tx_download_1cxdg0lavbeha-fill" data-item-order="0" data-item-id="tx_download_1cxdg0lavbeha" data-item-class="Label Stroke SceneTarget Indexed ColorStrokeBlack" data-item-index="4" data-renderer-id="0" transform="translate(309, 366)"><g id="tx_download_1cxdg0lavbeha-fill" stroke="none" fill="#666666"><g><text style="font: 20px Roboto, sans-serif; white-space: pre;"><tspan x="17.02" y="33.5" dominant-baseline="ideographic">Download </tspan><tspan x="33.71" y="57.5" dominant-baseline="ideographic">Result</tspan></text></g></g></g><g id="g-root--1.cu_sy_4ijxp1avbeo2-stroke" data-item-order="-82939" data-item-id="-1.cu_sy_4ijxp1avbeo2" data-item-class="ScenePart Stroke ColorStrokeBlack" data-item-index="-1" data-renderer-id="0" transform="translate(3, 245.9959716796875)"><g id="-1.cu_sy_4ijxp1avbeo2-stroke" fill="none" stroke-linecap="round" stroke-linejoin="round" stroke-miterlimit="4" stroke="#666666" stroke-width="2"><g><path d="M 430 33.999998L 442 21.991998L 430.016 9.999998M 10 21.999998C 10 21.999998 75.837 21.999998 78.998 21.999998M 84.998 21.999998C 84.998 21.999998 170.876 21.999998 174.998 21.999998M 181 21.999998C 181 21.999998 266.878 21.999998 271 21.999998M 277 21.999998C 277 21.999998 362.878 21.999998 367 21.999998M 373 21.999998C 373 21.999998 438.84 21.999998 442 21.999998"></path></g></g></g><g id="g-root-4.cr-big_cr_1q87hatavbg23-stroke" data-item-order="-82938" data-item-id="4.cr-big_cr_1q87hatavbg23" data-item-class="Shape Stroke Fill ScenePart Indexed ColorStrokeBlack" data-item-index="4" data-renderer-id="0" transform="translate(327, 281.99798583984375)"><g id="4.cr-big_cr_1q87hatavbg23-stroke" fill="none" stroke-linecap="round" stroke-linejoin="round" stroke-miterlimit="4" stroke="#ffffff" stroke-width="2"><g><path d="M 10 46C 10 65.882251 26.117749 82 46 82C 65.882251 82 82 65.882251 82 46C 82 26.117749 65.882251 10 46 10C 26.117749 10 10 26.117749 10 46"></path></g></g></g><g id="g-root-4.cu-smallCircle_sy_1lt0g9havbdok-stroke" data-item-order="-82935" data-item-id="4.cu-smallCircle_sy_1lt0g9havbdok" data-item-class="ScenePart Indexed Stroke ColorStrokeBlack" data-item-index="4" data-renderer-id="0" transform="translate(360, 255.00201416015625)"><g id="4.cu-smallCircle_sy_1lt0g9havbdok-stroke" fill="none" stroke-linecap="round" stroke-linejoin="round" stroke-miterlimit="4" stroke="#666666" stroke-width="2"><g><path d="M 13 9.999986C 11.343 9.999986 10 11.342986 10 12.999986C 10 14.656986 11.343 15.999986 13 15.999986C 14.657 15.999986 16 14.656986 16 12.999986C 16 11.342986 14.657 9.999986 13 9.999986Z"></path></g></g></g><g id="g-root-4.ln_ln_1lt0g9havbdol-stroke" data-item-order="-82933" data-item-id="4.ln_ln_1lt0g9havbdol" data-item-class="Curve Stroke ScenePart Indexed ColorStrokeBlack" data-item-index="4" data-renderer-id="0" transform="translate(363, 261.00201416015625)"><g id="4.ln_ln_1lt0g9havbdol-stroke" fill="none" stroke-linecap="round" stroke-linejoin="round" stroke-miterlimit="4" stroke="#666666" stroke-width="2"><g><path d="M 10 31L 10 20.5L 10 10"></path></g></g></g><g id="g-root-3.cr-big_cr_1q87hatavbg21-stroke" data-item-order="-82932" data-item-id="3.cr-big_cr_1q87hatavbg21" data-item-class="Shape Stroke Fill ScenePart Indexed ColorStrokeBlack" data-item-index="3" data-renderer-id="0" transform="translate(231, 162)"><g id="3.cr-big_cr_1q87hatavbg21-stroke" fill="none" stroke-linecap="round" stroke-linejoin="round" stroke-miterlimit="4" stroke="#ffffff" stroke-width="2"><g><path d="M 10 46C 10 65.882251 26.117749 82 46 82C 65.882251 82 82 65.882251 82 46C 82 26.117749 65.882251 10 46 10C 26.117749 10 10 26.117749 10 46"></path></g></g></g><g id="g-root-3.cu_sy_1q87hatavbg22-stroke" data-item-order="-82929" data-item-id="3.cu_sy_1q87hatavbg22" data-item-class="ScenePart Indexed Stroke ColorStrokeBlack" data-item-index="3" data-renderer-id="0" transform="translate(264, 234)"><g id="3.cu_sy_1q87hatavbg22-stroke" fill="none" stroke-linecap="round" stroke-linejoin="round" stroke-miterlimit="4" stroke="#666666" stroke-width="2"><g><path d="M 13 36.996C 14.657 36.996 16 35.653 16 33.996C 16 32.339 14.657 30.996 13 30.996C 11.343 30.996 10 32.339 10 33.996C 10 35.653 11.343 36.996 13 36.996ZM 13 10L 13 30.996"></path></g></g></g><g id="g-root-2.cr-big_cr_1uo0zf9avbf9q-stroke" data-item-order="-82928" data-item-id="2.cr-big_cr_1uo0zf9avbf9q" data-item-class="Shape Stroke Fill ScenePart Indexed ColorStrokeBlack" data-item-index="2" data-renderer-id="0" transform="translate(135, 282)"><g id="2.cr-big_cr_1uo0zf9avbf9q-stroke" fill="none" stroke-linecap="round" stroke-linejoin="round" stroke-miterlimit="4" stroke="#ffffff" stroke-width="2"><g><path d="M 10 46C 10 65.882251 26.117749 82 46 82C 65.882251 82 82 65.882251 82 46C 82 26.117749 65.882251 10 46 10C 26.117749 10 10 26.117749 10 46"></path></g></g></g><g id="g-root-2.cu-smallCircle_sy_1uo0zf9avbf9r-stroke" data-item-order="-82925" data-item-id="2.cu-smallCircle_sy_1uo0zf9avbf9r" data-item-class="ScenePart Indexed Stroke ColorStrokeBlack" data-item-index="2" data-renderer-id="0" transform="translate(168, 255.00201416015625)"><g id="2.cu-smallCircle_sy_1uo0zf9avbf9r-stroke" fill="none" stroke-linecap="round" stroke-linejoin="round" stroke-miterlimit="4" stroke="#666666" stroke-width="2"><g><path d="M 13 9.999986C 11.343 9.999986 10 11.342986 10 12.999986C 10 14.656986 11.343 15.999986 13 15.999986C 14.657 15.999986 16 14.656986 16 12.999986C 16 11.342986 14.657 9.999986 13 9.999986Z"></path></g></g></g><g id="g-root-2.ln_ln_1q87hatavbg20-stroke" data-item-order="-82923" data-item-id="2.ln_ln_1q87hatavbg20" data-item-class="Curve Stroke ScenePart Indexed ColorStrokeBlack" data-item-index="2" data-renderer-id="0" transform="translate(171, 261.00201416015625)"><g id="2.ln_ln_1q87hatavbg20-stroke" fill="none" stroke-linecap="round" stroke-linejoin="round" stroke-miterlimit="4" stroke="#666666" stroke-width="2"><g><path d="M 10 31L 10 20.5L 10 10"></path></g></g></g><g id="g-root-1.cr-big_cr_4ijxp1avbeo3-stroke" data-item-order="-82922" data-item-id="1.cr-big_cr_4ijxp1avbeo3" data-item-class="Shape Stroke Fill ScenePart Indexed Indexed_1 ColorStrokeBlack" data-item-index="1" data-renderer-id="0" transform="translate(39, 162)"><g id="1.cr-big_cr_4ijxp1avbeo3-stroke" fill="none" stroke-linecap="round" stroke-linejoin="round" stroke-miterlimit="4" stroke="#ffffff" stroke-width="2"><g><path d="M 10 46C 10 65.882251 26.117749 82 46 82C 65.882251 82 82 65.882251 82 46C 82 26.117749 65.882251 10 46 10C 26.117749 10 10 26.117749 10 46"></path></g></g></g><g id="g-root-1.cu-smallCircle_sy_1uo0zf9avbf9o-stroke" data-item-order="-82919" data-item-id="1.cu-smallCircle_sy_1uo0zf9avbf9o" data-item-class="ScenePart Indexed Indexed_1 Stroke ColorStrokeBlack" data-item-index="1" data-renderer-id="0" transform="translate(72, 254.9959716796875)"><g id="1.cu-smallCircle_sy_1uo0zf9avbf9o-stroke" fill="none" stroke-linecap="round" stroke-linejoin="round" stroke-miterlimit="4" stroke="#666666" stroke-width="2"><g><path d="M 13 15.999998C 14.657 15.999998 16 14.656998 16 12.999998C 16 11.342998 14.657 9.999998 13 9.999998C 11.343 9.999998 10 11.342998 10 12.999998C 10 14.656998 11.343 15.999998 13 15.999998Z"></path></g></g></g><g id="g-root-1.ln_ln_1uo0zf9avbf9p-stroke" data-item-order="-82917" data-item-id="1.ln_ln_1uo0zf9avbf9p" data-item-class="Curve Stroke ScenePart Indexed Indexed_1 ColorStrokeBlack" data-item-index="1" data-renderer-id="0" transform="translate(75, 234)"><g id="1.ln_ln_1uo0zf9avbf9p-stroke" fill="none" stroke-linecap="round" stroke-linejoin="round" stroke-miterlimit="4" stroke="#666666" stroke-width="2"><g><path d="M 10 10L 10 20.5L 10 31"></path></g></g></g><g id="g-root-tx_removete_qqwehhavbegy-stroke" data-item-order="0" data-item-id="tx_removete_qqwehhavbegy" data-item-class="Label Stroke" data-item-index="none" data-renderer-id="0" transform="translate(75, 2)"></g><g id="g-root-tx_uploadim_141qfrpavbg1t-stroke" data-item-order="0" data-item-id="tx_uploadim_141qfrpavbg1t" data-item-class="Label Stroke SceneTarget Indexed Indexed_1 ColorStrokeBlack" data-item-index="1" data-renderer-id="0" transform="translate(9, 126)"></g><g id="g-root-tx_removete_18hjxw5avbf9j-stroke" data-item-order="0" data-item-id="tx_removete_18hjxw5avbf9j" data-item-class="Label Stroke SceneTarget Indexed ColorStrokeBlack" data-item-index="3" data-renderer-id="0" transform="translate(207, 126)"></g><g id="g-root-uplo_1cxdg0lavcsn7-stroke" data-item-order="0" data-item-id="uplo_1cxdg0lavcsn7" data-item-class="Icon Stroke SceneTarget Indexed Indexed_1 InsideFill InsideColorFill ColorStrokeBlack" data-item-index="1" data-renderer-id="0" transform="translate(51, 174)"><g id="uplo_1cxdg0lavcsn7-stroke" fill="none" stroke-linecap="round" stroke-linejoin="round" stroke-miterlimit="4" stroke="#ffffff" stroke-width="2"><g><path d="M 19 25C 19 27.209139 20.790861 29 23 29C 25.209139 29 27 27.209139 27 25C 27 22.790861 25.209139 21 23 21C 20.790861 21 19 22.790861 19 25ZM 34.599998 31.57L 33.841999 30.356001C 33.659264 30.063618 33.338791 29.885996 32.993999 29.885996C 32.649208 29.885996 32.328735 30.063618 32.146 30.356001L 26.875999 38.799999L 24.723999 35.356003C 24.541262 35.063618 24.220791 34.885994 23.875999 34.885994C 23.531208 34.885994 23.210739 35.063618 23.028 35.356003L 17 45L 27 45M 29 57L 13 57C 11.895431 57 11 56.104568 11 55L 11 13C 11 11.895431 11.895431 11 13 11L 39.585999 11C 40.11639 11.000113 40.625015 11.210901 41 11.586L 48.414001 19C 48.789101 19.374985 48.999886 19.88361 49 20.414L 49 27M 33 45C 33 51.627419 38.372581 57 45 57C 51.627419 57 57 51.627419 57 45C 57 38.372581 51.627419 33 45 33C 38.372581 33 33 38.372581 33 45ZM 45 51L 45 39M 45 39L 40.5 43.5M 45 39L 49.5 43.5"></path></g></g></g><g id="g-root-eras_v9ua1havcs93-stroke" data-item-order="0" data-item-id="eras_v9ua1havcs93" data-item-class="Icon Stroke SceneTarget Indexed InsideFill InsideColorFill ColorStrokeBlack" data-item-index="3" data-renderer-id="0" transform="translate(243, 174)"><g id="eras_v9ua1havcs93-stroke" fill="none" stroke-linecap="round" stroke-linejoin="round" stroke-miterlimit="4" stroke="#ffffff" stroke-width="2"><g><path d="M 22 56.285713L 56.285713 56.285713M 52.239998 31.29143C 52.866348 30.684385 53.219891 29.849388 53.219891 28.977142C 53.219891 28.104898 52.866348 27.269901 52.239998 26.662857L 38.285713 12.674286C 36.970676 11.454684 34.937897 11.454684 33.622856 12.674286L 12.674286 33.622856C 11.454684 34.937897 11.454684 36.970676 12.674286 38.285713L 21.040001 46.617146C 21.635811 47.251205 22.46707 47.611004 23.337143 47.611431L 34.582859 47.611431C 35.464832 47.620544 36.310337 47.25996 36.914284 46.617146Z"></path></g></g></g><g id="g-root-top_1hckh1xavcv0q-stroke" data-item-order="0" data-item-id="top_1hckh1xavcv0q" data-item-class="Icon Stroke SceneTarget Indexed InsideFill InsideColorFill ColorStrokeBlack" data-item-index="2" data-renderer-id="0" transform="translate(147, 294)"><g id="top_1hckh1xavcv0q-stroke" fill="none" stroke-linecap="round" stroke-linejoin="round" stroke-miterlimit="4" stroke="#ffffff" stroke-width="2"><g><path d="M 42.57143 56.285713L 11.714286 56.285713M 56.285713 46L 11.714286 46M 56.285713 35.714287L 11.714286 35.714287M 11.714286 23.714287L 11.714286 13.428572C 11.714286 13.428572 11.714286 11.714286 13.428572 11.714286L 54.57143 11.714286C 54.57143 11.714286 56.285713 11.714286 56.285713 13.428572L 56.285713 23.714287C 56.285713 23.714287 56.285713 25.428572 54.57143 25.428572L 13.428572 25.428572C 13.428572 25.428572 11.714286 25.428572 11.714286 23.714287"></path></g></g></g><g id="g-root-2_1q87hatavcu81-stroke" data-item-order="0" data-item-id="2_1q87hatavcu81" data-item-class="Icon Stroke SceneTarget Indexed InsideFill InsideColorFill ColorStrokeBlack" data-item-index="4" data-renderer-id="0" transform="translate(339, 294)"><g id="2_1q87hatavcu81-stroke" fill="none" stroke-linecap="round" stroke-linejoin="round" stroke-miterlimit="4" stroke="#ffffff" stroke-width="2"><g><path d="M 18.571428 56.285713L 15.142858 56.285713C 13.24931 56.285713 11.714286 54.750694 11.714286 52.857143L 11.714286 25.428572L 56.285713 25.428572L 56.285713 52.857143C 56.285713 54.750694 54.750694 56.285713 52.857143 56.285713L 49.428574 56.285713M 25.428572 47.714287L 34 56.285713L 42.57143 47.714287M 34 56.285713L 34 35.714287M 48.708572 13.428572C 48.11232 12.394884 47.021488 11.74558 45.828571 11.714286L 22.171429 11.714286C 20.978514 11.74558 19.88768 12.394884 19.29143 13.428572L 11.714286 25.428572L 56.285713 25.428572Z"></path></g></g></g><g id="g-root-tx_highligh_141qfrpavbg1s-stroke" data-item-order="0" data-item-id="tx_highligh_141qfrpavbg1s" data-item-class="Label Stroke SceneTarget Indexed ColorStrokeBlack" data-item-index="2" data-renderer-id="0" transform="translate(105, 366)"></g><g id="g-root-tx_download_1cxdg0lavbeha-stroke" data-item-order="0" data-item-id="tx_download_1cxdg0lavbeha" data-item-class="Label Stroke SceneTarget Indexed ColorStrokeBlack" data-item-index="4" data-renderer-id="0" transform="translate(309, 366)"></g></g></g></svg>