<?xml version="1.0" encoding="utf-8" standalone="yes"?>
<!DOCTYPE svg PUBLIC "-//W3C//DTD SVG 1.1//EN" "http://www.w3.org/Graphics/SVG/1.1/DTD/svg11.dtd">
<svg width="637" height="432" viewBox="0 0 637 432" style="fill:none;stroke:none;fill-rule:evenodd;clip-rule:evenodd;stroke-linecap:round;stroke-linejoin:round;stroke-miterlimit:1.5;" version="1.1" xmlns="http://www.w3.org/2000/svg" xmlns:xlink="http://www.w3.org/1999/xlink"><style id="fontImports">@import url("https://fonts.googleapis.com/css2?family=Roboto:wght@400;700&amp;display=block");</style><g id="items" style="isolation: isolate"><g id="blend" style="mix-blend-mode:multiply"><g id="g-root-0.cr-big_cr_1uqivt1d2raq1-fill" data-item-order="-95154" data-item-id="0.cr-big_cr_1uqivt1d2raq1" data-item-class="Shape Stroke Fill ScenePart Indexed_0 ColorStrokeBlack" data-item-index="0" data-renderer-id="0" transform="translate(254.0068359375, 146)"><g id="0.cr-big_cr_1uqivt1d2raq1-fill" stroke="none" fill="#562d69"><g><path d="M 10 70C 10.000003 103.137088 36.862918 130.000003 70.000003 130.000003C 103.137088 130.000003 130.000003 103.137088 130.000003 70.000003C 130.000003 36.862918 103.137088 10.000003 70.000003 10.000003C 36.862918 10.000003 10.000003 36.862918 10.000003 70.000003"></path></g></g></g><g id="g-root-3.cu_sy_1hf2dfpd2rcb0-fill" data-item-order="-95152" data-item-id="3.cu_sy_1hf2dfpd2rcb0" data-item-class="ScenePart Indexed Fill Stroke ColorStrokeBlack" data-item-index="3" data-renderer-id="0" transform="translate(149.56744384765625, 61.919921875)"><g id="3.cu_sy_1hf2dfpd2rcb0-fill" stroke="none" fill="#de9ffb"><g><path d="M 174.395105 94.0141C 164.223105 94.0177 153.914105 96.611 144.472105 102.0625C 115.774705 118.631 105.942205 155.327 122.510805 184.024C 122.511905 184.026 122.513005 184.028 122.514105 184.03L 49.767905 226.03L 49.764505 226.024C 10.000005 157.15 33.598005 69.0809 102.472105 29.3164C 125.136705 16.231 149.880105 10.007 174.296105 10L 174.395105 94.0141Z"></path></g></g></g><g id="g-root-2.cu_sy_1qapdold2rbib-fill" data-item-order="-95150" data-item-id="2.cu_sy_1qapdold2rbib" data-item-class="ScenePart Indexed Fill Stroke ColorStrokeBlack" data-item-index="2" data-renderer-id="0" transform="translate(189.3271484375, 235.94921875)"><g id="2.cu_sy_1qapdold2rbib-fill" stroke="none" fill="#b179ca"><g><path d="M 82.7091 10.0779C 87.7983 18.8854 95.1983 26.5158 104.6405 31.9673C 133.338 48.5359 170.034 38.7034 186.602 10.0058C 186.603 10.0039 186.604 10.0019 186.605 10L 259.352 52L 259.348 52.0059C 219.584 120.88 131.515 144.478 62.6406 104.7136C 39.976 91.6282 22.2143 73.3119 10 52.1702L 82.7091 10.0779Z"></path></g></g></g><g id="g-root-1.cu_sy_1qapdold2rbia-fill" data-item-order="-95148" data-item-id="1.cu_sy_1qapdold2rbia" data-item-class="ScenePart Indexed Indexed_1 Fill Stroke ColorStrokeBlack" data-item-index="1" data-renderer-id="0" transform="translate(314.0068359375, 62.011962890625)"><g id="1.cu_sy_1qapdold2rbia-fill" stroke="none" fill="#83539a"><g><path d="M 62.0156 183.938C 67.0986 175.127 70.0067 164.903 70.0067 154C 70.0067 120.863 43.1438 94.0001 10.0067 94.0001C 10.0045 94.0001 10.0022 94.0001 10 94.0001L 10.000001 10L 10.0068 10C 89.5358 9.999996 154.007 74.471 154.007 154C 154.007 180.171 147.025 204.711 134.823 225.86L 62.0156 183.938Z"></path></g></g></g><g id="g-root-tx_keyfeatu_1hf2dfpd2rcb1-fill" data-item-order="0" data-item-id="tx_keyfeatu_1hf2dfpd2rcb1" data-item-class="Label Stroke SceneTarget SceneTitle ColorStrokeBlack" data-item-index="none" data-renderer-id="0" transform="translate(140.0068359375, 2)"><g id="tx_keyfeatu_1hf2dfpd2rcb1-fill" stroke="none" fill="#666666"><g><text style="font: 20px Roboto, sans-serif; white-space: pre;"><tspan x="12.99" y="33.5" dominant-baseline="ideographic">Key Features of Our Text Removal Tool</tspan></text></g></g></g><g id="g-root-tx_aipowere_v8lbwld2rcao-fill" data-item-order="0" data-item-id="tx_aipowere_v8lbwld2rcao" data-item-class="Label Stroke SceneTarget Indexed Indexed_1 ColorStrokeBlack" data-item-index="1" data-renderer-id="0" transform="translate(458.013671875, 86.011962890625)"><g id="tx_aipowere_v8lbwld2rcao-fill" stroke="none" fill="#666666"><g><text style="font: 20px Roboto, sans-serif; white-space: pre;"><tspan x="12" y="33.5" dominant-baseline="ideographic">AI-Powered Text </tspan><tspan x="12" y="57.5" dominant-baseline="ideographic">Removal</tspan></text></g></g></g><g id="g-root-tx_rapidpro_1448c5hd2raq6-fill" data-item-order="0" data-item-id="tx_rapidpro_1448c5hd2raq6" data-item-class="Label Stroke SceneTarget Indexed ColorStrokeBlack" data-item-index="3" data-renderer-id="0" transform="translate(2, 109.98486328125)"><g id="tx_rapidpro_1448c5hd2raq6-fill" stroke="none" fill="#666666"><g><text style="font: 20px Roboto, sans-serif; white-space: pre;"><tspan x="21.1" y="33.5" dominant-baseline="ideographic">Rapid Processing</tspan></text></g></g></g><g id="g-root-fire_1cz8vb9d2ybyk-fill" data-item-order="0" data-item-id="fire_1cz8vb9d2ybyk" data-item-class="Icon Stroke SceneTarget Indexed InsideFill InsideColorFill ColorStrokeBlack" data-item-index="3" data-renderer-id="0" transform="translate(201.643310546875, 130.953857421875)"></g><g id="g-root-1_18jfd6td2ycqu-fill" data-item-order="0" data-item-id="1_18jfd6td2ycqu" data-item-class="Icon Stroke SceneTarget Indexed Indexed_1 InsideFill InsideColorFill ColorStrokeBlack" data-item-index="1" data-renderer-id="0" transform="translate(378.37060546875, 130.953369140625)"></g><g id="g-root-1_1luvvk5d2yb5v-fill" data-item-order="0" data-item-id="1_1luvvk5d2yb5v" data-item-class="Icon Stroke SceneTarget InsideFill InsideColorFill ColorStrokeBlack" data-item-index="0" data-renderer-id="0" transform="translate(278.0068359375, 169.99609375)"></g><g id="g-root-lapt_1cz8vb9d2ybyl-fill" data-item-order="0" data-item-id="lapt_1cz8vb9d2ybyl" data-item-class="Icon Stroke SceneTarget Indexed InsideFill InsideColorFill ColorStrokeBlack" data-item-index="2" data-renderer-id="0" transform="translate(290.007080078125, 284.003662109375)"></g><g id="g-root-tx_userfrie_zoeu11d2rbif-fill" data-item-order="0" data-item-id="tx_userfrie_zoeu11d2rbif" data-item-class="Label Stroke SceneTarget Indexed ColorStrokeBlack" data-item-index="2" data-renderer-id="0" transform="translate(248.0068359375, 361.9404296875)"><g id="tx_userfrie_zoeu11d2rbif-fill" stroke="none" fill="#666666"><g><text style="font: 20px Roboto, sans-serif; white-space: pre;"><tspan x="15.62" y="33.5" dominant-baseline="ideographic">User-Friendly </tspan><tspan x="33.82" y="57.5" dominant-baseline="ideographic">Interface</tspan></text></g></g></g><g id="g-root-0.cr-big_cr_1uqivt1d2raq1-stroke" data-item-order="-95154" data-item-id="0.cr-big_cr_1uqivt1d2raq1" data-item-class="Shape Stroke Fill ScenePart Indexed_0 ColorStrokeBlack" data-item-index="0" data-renderer-id="0" transform="translate(254.0068359375, 146)"><g id="0.cr-big_cr_1uqivt1d2raq1-stroke" fill="none" stroke-linecap="round" stroke-linejoin="round" stroke-miterlimit="4" stroke="#ffffff" stroke-width="2"><g><path d="M 10 70C 10.000003 103.137088 36.862918 130.000003 70.000003 130.000003C 103.137088 130.000003 130.000003 103.137088 130.000003 70.000003C 130.000003 36.862918 103.137088 10.000003 70.000003 10.000003C 36.862918 10.000003 10.000003 36.862918 10.000003 70.000003"></path></g></g></g><g id="g-root-3.cu_sy_1hf2dfpd2rcb0-stroke" data-item-order="-95152" data-item-id="3.cu_sy_1hf2dfpd2rcb0" data-item-class="ScenePart Indexed Fill Stroke ColorStrokeBlack" data-item-index="3" data-renderer-id="0" transform="translate(149.56744384765625, 61.919921875)"><g id="3.cu_sy_1hf2dfpd2rcb0-stroke" fill="none" stroke-linecap="round" stroke-linejoin="round" stroke-miterlimit="4" stroke="#ffffff" stroke-width="2"><g><path d="M 174.394805 94.0141C 164.222705 94.0177 153.914605 96.611 144.472305 102.0625C 115.774705 118.6311 105.942205 155.3265 122.510805 184.0241C 122.511905 184.026 122.513005 184.028 122.514105 184.0299L 49.767905 226.0299L 49.764505 226.024C 10.000005 157.1499 33.598005 69.0809 102.472105 29.3164C 125.136705 16.231 149.879905 10.007 174.296405 10L 174.394805 94.0141Z"></path></g></g></g><g id="g-root-2.cu_sy_1qapdold2rbib-stroke" data-item-order="-95150" data-item-id="2.cu_sy_1qapdold2rbib" data-item-class="ScenePart Indexed Fill Stroke ColorStrokeBlack" data-item-index="2" data-renderer-id="0" transform="translate(189.3271484375, 235.94921875)"><g id="2.cu_sy_1qapdold2rbib-stroke" fill="none" stroke-linecap="round" stroke-linejoin="round" stroke-miterlimit="4" stroke="#ffffff" stroke-width="2"><g><path d="M 82.7091 10.0779C 87.7983 18.8854 95.1983 26.5158 104.6405 31.9673C 133.3381 48.5359 170.0335 38.7034 186.6021 10.0058C 186.6032 10.0039 186.6043 10.0019 186.6054 10L 259.3516 52L 259.3482 52.0059C 219.5837 120.8801 131.5147 144.4781 62.6406 104.7136C 39.976 91.6282 22.2143 73.3119 10 52.1702L 82.7091 10.0779Z"></path></g></g></g><g id="g-root-1.cu_sy_1qapdold2rbia-stroke" data-item-order="-95148" data-item-id="1.cu_sy_1qapdold2rbia" data-item-class="ScenePart Indexed Indexed_1 Fill Stroke ColorStrokeBlack" data-item-index="1" data-renderer-id="0" transform="translate(314.0068359375, 62.011962890625)"><g id="1.cu_sy_1qapdold2rbia-stroke" fill="none" stroke-linecap="round" stroke-linejoin="round" stroke-miterlimit="4" stroke="#ffffff" stroke-width="2"><g><path d="M 62.0156 183.938C 67.0986 175.1269 70.0067 164.9031 70.0067 154.0001C 70.0067 120.863 43.1438 94.0001 10.0067 94.0001C 10.0045 94.0001 10.0022 94.0001 10 94.0001L 10.000001 10L 10.0068 10C 89.5358 10 154.0068 74.471 154.0068 154C 154.0068 180.1708 147.0253 204.711 134.8232 225.8598L 62.0156 183.938Z"></path></g></g></g><g id="g-root-tx_keyfeatu_1hf2dfpd2rcb1-stroke" data-item-order="0" data-item-id="tx_keyfeatu_1hf2dfpd2rcb1" data-item-class="Label Stroke SceneTarget SceneTitle ColorStrokeBlack" data-item-index="none" data-renderer-id="0" transform="translate(140.0068359375, 2)"></g><g id="g-root-tx_aipowere_v8lbwld2rcao-stroke" data-item-order="0" data-item-id="tx_aipowere_v8lbwld2rcao" data-item-class="Label Stroke SceneTarget Indexed Indexed_1 ColorStrokeBlack" data-item-index="1" data-renderer-id="0" transform="translate(458.013671875, 86.011962890625)"></g><g id="g-root-tx_rapidpro_1448c5hd2raq6-stroke" data-item-order="0" data-item-id="tx_rapidpro_1448c5hd2raq6" data-item-class="Label Stroke SceneTarget Indexed ColorStrokeBlack" data-item-index="3" data-renderer-id="0" transform="translate(2, 109.98486328125)"></g><g id="g-root-fire_1cz8vb9d2ybyk-stroke" data-item-order="0" data-item-id="fire_1cz8vb9d2ybyk" data-item-class="Icon Stroke SceneTarget Indexed InsideFill InsideColorFill ColorStrokeBlack" data-item-index="3" data-renderer-id="0" transform="translate(201.643310546875, 130.953857421875)"><g id="fire_1cz8vb9d2ybyk-stroke" fill="none" stroke-linecap="round" stroke-linejoin="round" stroke-miterlimit="4" stroke="#ffffff" stroke-width="2"><g><path d="M 20 43.001999C 20 50.73399 26.268015 57.002003 34 57.002003C 41.731987 57.002003 48 50.73399 48 43.002003C 48 35.270016 41.731987 29.002001 34 29.002001C 26.268015 29.002001 20 35.270016 20 43.002003ZM 47.099998 38.054001C 50.260151 36.237114 52.181328 32.844597 52.114002 29.200001C 52.050232 25.509613 50.54237 21.991268 47.914001 19.4C 47.755997 20.712328 47.068573 21.903091 46.011131 22.696175C 44.953686 23.489258 43.618073 23.815769 42.313999 23.599998C 38.643883 20.513309 37.496609 15.35058 39.514 11C 30.764 11 25.164 16.162001 24.114 23.6C 21.436256 23.879742 18.995216 22.048962 18.514 19.4C 12.32 24.667999 12 35.323997 20.501999 39.274002M 41 43.001999L 34 43.001999L 34 34.001999"></path></g></g></g><g id="g-root-1_18jfd6td2ycqu-stroke" data-item-order="0" data-item-id="1_18jfd6td2ycqu" data-item-class="Icon Stroke SceneTarget Indexed Indexed_1 InsideFill InsideColorFill ColorStrokeBlack" data-item-index="1" data-renderer-id="0" transform="translate(378.37060546875, 130.953369140625)"><g id="1_18jfd6td2ycqu-stroke" fill="none" stroke-linecap="round" stroke-linejoin="round" stroke-miterlimit="4" stroke="#ffffff" stroke-width="2"><g><path d="M 22 56.285713L 32.765713 31.154285C 32.973331 30.656004 33.460194 30.331429 34 30.331429C 34.539806 30.331429 35.026669 30.656004 35.234287 31.154285L 46 56.285713M 26.834286 45.005714L 41.165714 45.005714M 11.714286 23.714287C 11.714286 17.086868 17.086868 11.714286 23.714287 11.714286M 11.714286 23.714287C 11.714286 17.086868 17.086868 11.714286 23.714287 11.714286M 20.285715 23.714287C 20.285715 21.820738 21.820738 20.285715 23.714287 20.285715M 20.285715 23.714287C 20.285715 21.820738 21.820738 20.285715 23.714287 20.285715M 44.285713 11.714286C 50.913132 11.714286 56.285717 17.086868 56.285717 23.714287M 44.285713 11.714286C 50.913132 11.714286 56.285717 17.086868 56.285717 23.714287M 44.285713 20.285715C 46.179264 20.285715 47.714287 21.820738 47.714287 23.714287M 44.285713 20.285715C 46.179264 20.285715 47.714287 21.820738 47.714287 23.714287"></path></g></g></g><g id="g-root-1_1luvvk5d2yb5v-stroke" data-item-order="0" data-item-id="1_1luvvk5d2yb5v" data-item-class="Icon Stroke SceneTarget InsideFill InsideColorFill ColorStrokeBlack" data-item-index="0" data-renderer-id="0" transform="translate(278.0068359375, 169.99609375)"><g id="1_1luvvk5d2yb5v-stroke" fill="none" stroke-linecap="round" stroke-linejoin="round" stroke-miterlimit="4" stroke="#ffffff" stroke-width="2"><g><path d="M 50.5 11.5L 77.5 11.5C 79.156853 11.5 80.5 12.843145 80.5 14.5L 80.5 77.5C 80.5 79.156853 79.156853 80.5 77.5 80.5L 50.5 80.5M 41.5 47.5C 41.5 49.985283 43.514721 52 46 52C 48.485283 52 50.5 49.985283 50.5 47.5C 50.5 45.014721 48.485283 43 46 43C 43.514721 43 41.5 45.014721 41.5 47.5M 41.503002 11.5L 11.5 11.5M 29.503 20.490999L 11.5 20.490999M 41.503002 80.5L 11.5 80.5M 29.503 71.490997L 11.5 71.490997M 16 32.491001L 11.5 32.491001M 17.503 46L 11.5 46M 16 59.490997L 11.5 59.490997M 61.687 46C 68.287003 41.542 71.658997 35.170002 69.223 31.444C 67 28.035999 60.681999 28 54.346001 31.069C 53.574997 24.190001 50.137001 19 46 19C 41.862999 19 38.439999 24.190001 37.666 31.069C 31.333 28 25.018 28.035999 22.792 31.444C 20.355999 35.170002 23.734001 41.542 30.325001 46C 23.724998 50.458 20.355999 56.829998 22.792 60.556C 25.018 63.964005 31.333 64.002998 37.666 60.931C 38.439999 67.809998 41.878002 73 46 73C 50.121998 73 53.569 67.809998 54.34 60.931C 60.681999 64 67 63.964005 69.223 60.556C 71.658997 56.829998 68.278 50.458 61.687 46Z"></path></g></g></g><g id="g-root-lapt_1cz8vb9d2ybyl-stroke" data-item-order="0" data-item-id="lapt_1cz8vb9d2ybyl" data-item-class="Icon Stroke SceneTarget Indexed InsideFill InsideColorFill ColorStrokeBlack" data-item-index="2" data-renderer-id="0" transform="translate(290.007080078125, 284.003662109375)"><g id="lapt_1cz8vb9d2ybyl-stroke" fill="none" stroke-linecap="round" stroke-linejoin="round" stroke-miterlimit="4" stroke="#ffffff" stroke-width="2"><g><path d="M 32.285713 22C 32.285713 26.73387 36.123276 30.571428 40.857143 30.571428C 45.591011 30.571428 49.428574 26.73387 49.428574 22C 49.428574 17.26613 45.591011 13.428572 40.857143 13.428572C 36.123276 13.428572 32.285713 17.26613 32.285713 22M 40.857143 39.142857C 44.951847 39.133724 48.88147 40.756302 51.776871 43.651699C 54.672268 46.5471 56.294846 50.476723 56.285713 54.571426M 32.285713 37.428574L 11.714286 37.428574L 15.142858 54.57143L 35.714287 54.57143L 32.285713 37.428574ZM 22 46L 25.428572 46M 35.714287 54.57143L 46 54.57143"></path></g></g></g><g id="g-root-tx_userfrie_zoeu11d2rbif-stroke" data-item-order="0" data-item-id="tx_userfrie_zoeu11d2rbif" data-item-class="Label Stroke SceneTarget Indexed ColorStrokeBlack" data-item-index="2" data-renderer-id="0" transform="translate(248.0068359375, 361.9404296875)"></g></g></g></svg>